<?xml version="1.0" standalone="no"?>
<!DOCTYPE svg PUBLIC "-//W3C//DTD SVG 20010904//EN"
 "http://www.w3.org/TR/2001/REC-SVG-20010904/DTD/svg10.dtd">
<svg version="1.0" xmlns="http://www.w3.org/2000/svg"
 width="1280.000000pt" height="1280.000000pt" viewBox="0 0 1280.000000 1280.000000"
 preserveAspectRatio="xMidYMid meet">
<metadata>
Created by potrace 1.15, written by Peter Selinger 2001-2017
</metadata>
<g transform="translate(0.000000,1280.000000) scale(0.100000,-0.100000)"
fill="#000000" stroke="none">
<path d="M6222 10101 c-257 -64 -425 -269 -439 -536 -10 -197 39 -317 192
-471 55 -56 115 -107 133 -115 l32 -14 0 -82 0 -81 -37 -6 c-21 -4 -157 -2
-304 3 -289 10 -395 4 -484 -30 -103 -38 -145 -94 -145 -194 0 -103 71 -192
180 -226 61 -20 87 -21 429 -20 288 1 366 -1 373 -11 4 -7 8 -88 8 -180 l0
-168 -37 0 c-91 -1 -224 -49 -292 -105 -38 -33 -41 -21 -4 17 41 42 22 52 -66
34 -76 -16 -150 -51 -195 -93 -24 -22 -29 -23 -39 -9 -10 13 -20 14 -56 5 -61
-14 -92 -32 -134 -78 -41 -46 -69 -97 -88 -161 l-13 -45 -4 35 c-2 19 -7 39
-11 43 -15 16 -91 -84 -107 -142 -16 -54 -16 -177 1 -226 6 -18 5 -18 -5 -2
-15 24 -37 21 -46 -5 -3 -12 -7 -56 -6 -98 0 -78 28 -176 57 -200 17 -14 20
-34 4 -24 -21 13 -27 -19 -12 -70 22 -75 40 -104 101 -169 31 -32 57 -65 58
-73 7 -47 130 -190 193 -224 13 -6 20 -17 18 -24 -6 -15 42 -77 88 -116 16
-14 38 -35 48 -47 11 -12 31 -27 46 -33 15 -6 35 -27 46 -46 31 -57 205 -208
205 -177 0 4 10 -7 23 -23 12 -16 59 -65 105 -108 97 -93 93 -68 62 -374 -33
-323 -86 -610 -134 -724 -25 -59 -158 -137 -294 -174 -85 -22 -240 -19 -332 6
-258 73 -548 319 -678 575 -25 51 -77 199 -86 246 -6 35 -6 36 21 32 16 -3 71
-19 123 -35 74 -24 118 -31 198 -34 62 -2 102 1 102 7 0 19 -800 989 -816 989
-6 0 -32 -60 -59 -132 -26 -73 -116 -313 -200 -533 -84 -220 -163 -428 -175
-463 -29 -79 -20 -93 40 -62 23 12 51 23 61 25 10 2 51 26 91 53 90 61 114 73
155 82 31 8 33 6 49 -39 154 -427 316 -686 612 -978 233 -230 426 -368 737
-526 129 -66 175 -109 194 -182 16 -64 48 -119 109 -187 27 -29 47 -59 45 -66
-8 -23 45 -97 121 -170 42 -40 76 -78 76 -85 0 -21 58 -103 85 -121 13 -9 34
-27 47 -41 13 -13 43 -31 67 -40 24 -8 70 -39 103 -70 32 -30 70 -58 83 -61
14 -3 23 -10 20 -14 -8 -14 35 -24 105 -25 36 -1 72 -4 80 -7 25 -11 161 -38
187 -38 33 0 92 32 127 69 26 27 32 29 45 17 14 -13 23 -12 71 5 70 25 115 62
165 136 23 34 46 58 53 55 23 -7 71 19 108 60 38 42 69 105 80 163 3 19 10 32
16 29 18 -11 77 47 104 102 21 44 29 76 32 139 4 75 6 81 26 81 49 -2 81 143
53 244 -8 30 -18 62 -22 72 -5 12 -1 16 12 15 16 -2 18 7 16 93 l-1 95 55 45
c100 80 348 332 433 440 169 213 317 473 394 695 51 148 44 138 80 131 17 -4
79 -39 139 -78 59 -39 110 -68 113 -65 3 3 26 -3 51 -14 54 -23 73 -24 73 -4
0 8 -30 86 -66 173 -81 192 -145 353 -279 711 -57 151 -107 277 -112 282 -11
11 -18 5 -99 -86 -175 -198 -359 -428 -566 -704 -166 -221 -168 -228 -71 -205
40 9 59 10 64 3 4 -7 45 0 122 20 137 37 147 37 147 11 0 -51 -113 -291 -193
-410 -103 -152 -315 -338 -449 -394 l-36 -16 -26 44 c-24 41 -83 102 -122 125
-15 8 -16 12 -5 20 32 21 -72 170 -155 222 -21 12 -31 25 -27 34 8 22 -42 100
-90 138 -23 19 -64 46 -92 60 -27 14 -42 26 -32 27 27 0 20 23 -26 87 -48 65
-85 98 -140 128 -22 11 -41 31 -47 48 -5 16 -22 45 -38 65 -16 20 -32 46 -35
57 -12 39 -37 578 -52 1095 -8 289 -18 625 -21 746 l-7 222 58 21 c31 12 70
28 85 36 16 8 31 11 34 6 3 -5 32 -11 63 -15 32 -3 75 -9 96 -12 26 -4 56 0
95 13 31 11 84 21 117 22 33 1 78 3 101 5 43 3 134 50 134 69 0 7 5 4 11 -6
10 -16 19 -18 72 -11 34 4 72 7 85 6 32 -2 59 13 108 60 35 34 49 40 90 42 63
4 103 25 148 78 36 42 75 143 77 197 0 25 0 25 9 4 12 -31 24 -29 50 6 61 87
67 216 14 346 -7 18 -6 18 9 7 39 -32 48 26 21 131 -18 71 -43 122 -79 166
-16 18 -21 29 -11 25 28 -11 35 4 22 54 -19 72 -53 141 -91 188 -21 26 -33 48
-29 58 11 29 -28 125 -69 172 -22 25 -61 56 -88 70 -38 19 -49 30 -49 48 0 40
-42 89 -102 120 -45 22 -76 29 -145 34 -72 4 -83 7 -60 14 36 13 34 28 -8 56
-56 36 -148 55 -226 48 -60 -6 -67 -5 -65 11 1 15 -12 19 -81 29 -46 5 -84 12
-86 15 -2 2 -15 26 -28 54 -59 121 -208 236 -350 270 -85 20 -226 18 -317 -4z
m294 -390 c67 -32 87 -60 99 -143 16 -108 -59 -233 -158 -263 -88 -26 -158
-15 -236 39 -59 41 -85 97 -85 181 1 85 22 136 70 164 100 59 214 68 310 22z
m569 -256 c33 -11 65 -25 72 -31 7 -7 45 -15 85 -19 78 -8 199 -56 237 -94 12
-12 26 -21 32 -21 6 0 9 -7 5 -15 -5 -15 60 -100 127 -164 33 -31 35 -35 19
-47 -16 -12 -15 -17 14 -76 18 -35 54 -93 81 -129 43 -56 46 -65 29 -65 -18 1
-21 -4 -19 -42 1 -23 18 -79 38 -125 20 -45 39 -88 42 -96 4 -9 2 -12 -5 -7
-19 12 -32 -38 -32 -124 0 -59 -4 -83 -15 -92 -37 -31 -51 -46 -102 -115 -47
-62 -57 -70 -69 -58 -26 26 -101 -11 -246 -122 -32 -24 -58 -43 -58 -41 0 2
11 19 25 38 35 48 22 59 -57 48 -52 -8 -111 -27 -195 -65 -7 -3 -13 2 -13 10
0 37 -154 28 -249 -14 -40 -17 -46 -18 -53 -4 -7 11 -28 15 -88 15 l-80 0 0
170 0 170 353 -2 c448 -2 477 3 568 99 138 144 65 323 -149 364 -82 16 -220
17 -539 5 l-243 -9 0 55 c0 96 6 110 67 148 76 48 183 165 225 247 35 67 46
97 68 180 14 58 27 60 125 28z m-1209 -1774 c-12 -19 22 -29 104 -32 47 -1
107 2 134 8 l49 11 -7 -737 c-3 -405 -9 -763 -12 -797 -6 -58 -7 -61 -30 -56
-23 4 -34 22 -14 22 21 0 9 29 -31 74 -28 31 -66 58 -118 84 -46 22 -76 42
-73 50 11 34 -84 134 -167 177 -34 17 -49 30 -45 39 13 35 -74 136 -158 185
-34 19 -44 31 -37 38 14 14 -18 76 -78 150 -42 51 -46 62 -44 102 1 40 -18
158 -35 215 -4 10 -2 16 3 13 18 -11 29 9 55 98 l27 91 120 119 c65 66 112
108 104 94 -9 -15 -13 -34 -10 -44 8 -19 24 -16 107 22 30 13 63 26 74 29 10
2 33 15 50 28 34 27 40 31 32 17z m930 -2651 c18 -25 63 -74 100 -110 40 -38
77 -85 89 -110 11 -25 53 -79 93 -121 39 -42 72 -84 72 -94 0 -10 9 -32 20
-50 l20 -32 -53 9 c-215 38 -369 229 -394 490 -7 83 5 87 53 18z m636 -1363
c2 -72 0 -121 -5 -112 -4 8 -12 15 -17 15 -18 0 -49 -77 -67 -164 -17 -83 -18
-86 -46 -86 -17 0 -30 -7 -34 -17 -4 -10 -18 -34 -32 -54 -14 -19 -39 -63 -55
-97 -23 -48 -32 -59 -43 -51 -7 6 -24 8 -39 5 -31 -8 -116 -86 -145 -133 -19
-30 -22 -32 -33 -17 -12 15 -20 15 -112 -9 -122 -32 -153 -39 -136 -31 21 10
13 33 -16 48 -24 13 -82 29 -174 50 -16 4 -28 13 -28 22 0 25 -88 110 -145
141 -36 18 -53 33 -50 42 11 30 -79 142 -167 206 -24 18 -26 22 -13 38 13 18
21 15 151 -52 91 -47 149 -71 171 -71 23 0 72 21 151 65 64 35 259 129 432
209 173 79 344 158 380 175 44 21 66 27 67 19 1 -7 4 -70 5 -141z"/>
</g>
</svg>
