<svg xmlns="http://www.w3.org/2000/svg" viewBox="0 0 1440 320" preserveAspectRatio="none">
  <path fill="#ffffff" fill-opacity="0.3" d="M0,192L60,186.7C120,181,240,171,360,170.7C480,171,600,181,720,186.7C840,192,960,192,1080,170.7C1200,149,1320,107,1380,85.3L1440,64L1440,320L1380,320C1320,320,1200,320,1080,320C960,320,840,320,720,320C600,320,480,320,360,320C240,320,120,320,60,320L0,320Z"></path>
  <path fill="#ffffff" fill-opacity="0.4" d="M0,64L80,96C160,128,320,192,480,197.3C640,203,800,149,960,149.3C1120,149,1280,203,1360,229.3L1440,256L1440,320L1360,320C1280,320,1120,320,960,320C800,320,640,320,480,320C320,320,160,320,80,320L0,320Z"></path>
</svg>
